<svg width="25" height="22" viewBox="0 0 25 22" fill="none" xmlns="http://www.w3.org/2000/svg">
<ellipse cx="12.5068" cy="11.1954" rx="12.4932" ry="10.8043" fill="#FFB400"/>
<g clip-path="url(#clip0_2_476)">
<path d="M17.3589 10.9706C17.3091 10.1439 16.9766 9.34859 16.4036 8.68547C16.229 8.84809 16.0424 9.00072 15.8449 9.1424C15.2382 9.57824 14.5601 9.93398 13.8329 10.1981C13.9343 10.3819 14.0272 10.5599 14.1092 10.728V10.7296C14.1323 10.7765 14.1546 10.8238 14.176 10.8714C15.0955 10.7821 16.0647 10.8147 17.0042 10.9244C17.1293 10.9391 17.2472 10.9549 17.3589 10.9706V10.9706ZM11.6593 7.05785C12.2512 7.77905 12.797 8.52771 13.2942 9.30048C14.0369 9.04733 14.6509 8.72801 15.1453 8.37244C15.3169 8.25014 15.4784 8.11764 15.6287 7.97591C14.7548 7.34026 13.6491 6.99237 12.5071 6.99377C12.2229 6.99361 11.9393 7.01487 11.6593 7.05732V7.05785ZM7.80234 10.1434C8.21605 10.1344 8.62928 10.1129 9.04125 10.0788C10.037 10.0018 11.0243 9.85747 11.994 9.64712C11.4872 8.88568 10.94 8.14488 10.3542 7.42707C9.72855 7.69513 9.17683 8.07644 8.73653 8.54512C8.29622 9.01381 7.97762 9.55891 7.80234 10.1434ZM8.73152 13.8398C8.96715 13.5421 9.27688 13.207 9.68803 12.8425C10.571 12.0599 11.6132 11.4507 12.8193 11.1145L12.8569 11.1051C12.7567 10.9139 12.6626 10.7432 12.5679 10.5825C11.4529 10.8635 10.2783 11.0389 9.10805 11.1298C8.53718 11.1744 8.02522 11.1939 7.64869 11.197C7.64762 12.1595 8.03026 13.0929 8.73213 13.8398H8.73152ZM14.3321 15.0898C14.0979 14.0684 13.7664 13.0656 13.341 12.0914C12.1251 12.4733 11.1565 13.0316 10.4077 13.6975C10.1055 13.9614 9.83731 14.2528 9.60786 14.5667C10.4452 15.1071 11.4624 15.3984 12.5071 15.3971C13.1326 15.3979 13.7523 15.2939 14.3321 15.0909V15.0898ZM15.4696 14.5252C16.4177 13.8949 17.0637 12.9841 17.2836 11.9675C17.0771 11.9228 16.8154 11.8782 16.5275 11.8435C15.8875 11.7638 15.2381 11.758 14.5963 11.8262C14.9577 12.7079 15.2494 13.6099 15.4696 14.5258V14.5252ZM12.5071 16.4475C9.15299 16.4475 6.43408 14.0962 6.43408 11.1954C6.43408 8.29471 9.15299 5.94336 12.5071 5.94336C15.8613 5.94336 18.5802 8.29471 18.5802 11.1954C18.5802 14.0962 15.8613 16.4475 12.5071 16.4475Z" fill="#2B2B2B"/>
</g>
<defs>
<clipPath id="clip0_2_476">
<rect width="14.5753" height="12.605" fill="white" transform="translate(5.21924 4.89307)"/>
</clipPath>
</defs>
</svg>
